<svg  viewBox="0 0 169 86" fill="none" xmlns="http://www.w3.org/2000/svg">
<path d="M127.772 82.7093C121.188 81.1944 116.929 80.2163 112.707 76.8287C108.305 73.3099 106.17 68.9561 103.761 64.0655C99.86 56.1451 100.802 53.4493 97.0568 50.1213C92.8104 46.34 87.4427 46.1134 86.0828 46.0776C85.2359 46.0538 79.5342 45.9822 74.3693 49.8947C70.1228 53.1034 69.586 56.4671 66.5563 62.0615C64.9698 64.9959 59.5305 75.0514 50.4292 80.4549C45.6341 83.2938 40.0755 83.8664 28.9464 84.9876C28.9464 84.9876 18.9147 86.0015 6.12763 84.2719C5.4835 84.1884 4.99444 84.0811 4.73202 83.9976C3.36027 83.5443 2.00045 82.6497 0.640625 82.0891C2.54915 81.2183 4.43381 79.6915 6.37812 79.5961C13.3204 79.2859 20.2746 79.5245 27.2287 79.4529C41.3041 79.3336 51.3477 73.0355 57.4669 60.1888C66.7829 40.6264 87.8482 34.4953 102.46 47.2943C106.361 50.7058 109.534 55.4294 111.776 60.153C114.77 66.463 118.707 71.1628 123.585 74.3476C128.691 77.6756 133.426 78.3794 142.014 79.4529C147.191 80.097 154.551 80.5503 163.462 79.5722C166.3 79.7511 168.328 80.8008 168.364 81.7074C168.412 82.9002 164.583 83.9141 163.283 84.2481C156.77 85.9658 151.497 85.3336 143.935 84.5344C129.883 83.0314 130.337 83.2938 127.772 82.6974V82.7093Z" fill="black"/>
<path d="M37.2375 22.3154C38.1798 22.9238 39.0983 23.3174 39.7662 23.9735C44.6807 28.8163 49.619 33.6473 54.3665 38.6572C55.2134 39.5637 55.1656 41.3172 55.5354 42.677C54.0086 42.4503 51.9808 42.7605 51.0385 41.8897C45.9809 37.19 41.1499 32.2636 36.3905 27.2657C35.6033 26.4426 35.4363 24.88 35.3289 23.6395C35.2931 23.2816 36.474 22.8164 37.2375 22.3154Z" fill="black"/>
<path d="M82.2553 13.9423C82.2553 10.3638 82.0883 6.78536 82.3746 3.23074C82.4462 2.27647 83.9253 1.42957 84.7483 0.546875C85.464 1.38185 86.7881 2.20489 86.8 3.0518C86.967 10.5905 86.9909 18.1411 86.8 25.6797C86.7761 26.6101 85.1897 27.4928 84.3308 28.3994C83.6271 27.3497 82.3746 26.3477 82.303 25.2503C82.0525 21.4929 82.2076 17.7117 82.2076 13.9423C82.2195 13.9423 82.2434 13.9423 82.2553 13.9423Z" fill="black"/>
<path d="M134.32 25.0243C133.545 26.074 133.055 26.9448 132.376 27.6247C127.628 32.4318 122.916 37.2866 117.99 41.9148C117.072 42.7736 115.282 42.702 113.887 43.0599C114.137 41.545 113.863 39.5291 114.734 38.5868C119.326 33.6365 124.157 28.8891 129.048 24.2251C129.918 23.4021 131.409 22.9965 132.65 22.9011C133.127 22.8653 133.712 24.2132 134.308 25.0243H134.32Z" fill="black"/>
</svg>
