<svg  viewBox="0 0 120 47" fill="none" xmlns="http://www.w3.org/2000/svg">
<path d="M0.148797 30.9414C1.49663 29.6283 4.91408 30.3501 7.15758 30.4892C10.7663 30.9153 14.5055 30.9675 18.0012 29.7588C25.836 27.2892 32.8447 20.6109 40.9753 21.037C55.3754 22.3674 61.3928 51.1329 72.6799 32.6023C77.2886 26.1326 82.5495 17.863 89.9061 14.0717C97.7236 10.5499 104.132 17.6804 110.419 24.7239C113.08 27.9066 116.185 31.3153 118.246 34.8197C120.332 38.4719 118.837 39.8023 114.532 37.2545C112.498 36.0719 110.098 34.1588 107.993 32.0718C102.958 27.1588 96.2975 17.5587 88.8713 23.8631C80.8191 30.4283 76.3582 43.498 65.732 46.2111C58.9928 47.298 53.7232 40.1502 49.2536 35.8893C42.9144 29.1848 38.497 28.4283 29.5925 33.0371C22.5229 36.6371 13.8446 40.4284 6.23581 37.211C3.95753 36.3066 -0.825124 33.5414 0.122711 30.9936L0.157501 30.9501L0.148797 30.9414Z" fill="black"/>
<path d="M64.283 26.1844C56.3003 24.4105 61.0569 13.8191 67.8743 17.8539C71.9613 20.6539 69.1787 26.7757 64.4569 26.2018L64.283 26.1844Z" fill="black"/>
<path d="M21.2891 3.54199C31.3066 4.08982 30.6544 19.7074 20.5413 19.29C11.2716 18.2813 11.8369 3.82895 21.1239 3.54199H21.2891Z" fill="black"/>
<path d="M74.5292 4.62005C70.5379 3.73309 72.9205 -1.56262 76.3206 0.454793C78.3641 1.85481 76.9728 4.91569 74.6162 4.62873H74.5292V4.62005Z" fill="black"/>
</svg>
