<svg viewBox="0 0 100 100" fill="none" xmlns="http://www.w3.org/2000/svg">
<path d="M24.982 58.3337C30.8695 58.3337 33.982 55.2212 36.2529 52.9462C38.2945 50.9045 39.2987 50.0003 41.6362 50.0003C43.9737 50.0003 44.9779 50.9045 47.0195 52.9462C49.2904 55.2212 52.4029 58.3337 58.2945 58.3337C64.1904 58.3337 67.307 55.2212 69.5862 52.9462C71.632 50.9045 72.6362 50.0003 74.982 50.0003C77.3279 50.0003 78.332 50.9045 80.3779 52.9462C82.6529 55.2212 85.7695 58.3337 91.6654 58.3337V50.0003C89.3195 50.0003 88.3154 49.0962 86.2695 47.0545C83.9945 44.7795 80.8779 41.667 74.982 41.667C69.0862 41.667 65.9737 44.7795 63.6945 47.0503C61.6487 49.0962 60.6487 50.0003 58.2945 50.0003C55.9529 50.0003 54.9529 49.0962 52.9112 47.0545C50.6404 44.7795 47.5279 41.667 41.6362 41.667C35.7445 41.667 32.632 44.7795 30.3612 47.0545C28.3195 49.0962 27.3195 50.0003 24.982 50.0003C22.6445 50.0003 21.6445 49.0962 19.6029 47.0545C17.332 44.7795 14.2195 41.667 8.33203 41.667V50.0003C10.6695 50.0003 11.6695 50.9045 13.7112 52.9462C15.982 55.2212 19.0945 58.3337 24.982 58.3337Z" fill="black"/>
</svg>
