<svg viewBox="0 0 100 100" fill="none" xmlns="http://www.w3.org/2000/svg">
<path d="M24.982 37.4997C30.8695 37.4997 33.982 34.3872 36.2529 32.1122C38.2945 30.0705 39.2987 29.1663 41.6362 29.1663C43.9737 29.1663 44.9779 30.0705 47.0195 32.1122C49.2904 34.3872 52.4029 37.4997 58.2945 37.4997C64.1904 37.4997 67.307 34.3872 69.5862 32.1122C71.632 30.0705 72.6362 29.1663 74.982 29.1663C77.3279 29.1663 78.332 30.0705 80.3779 32.1122C82.6529 34.3872 85.7695 37.4997 91.6654 37.4997V29.1663C89.3195 29.1663 88.3154 28.2622 86.2695 26.2205C83.9945 23.9455 80.8779 20.833 74.982 20.833C69.0862 20.833 65.9737 23.9455 63.6945 26.2163C61.6487 28.2622 60.6487 29.1663 58.2945 29.1663C55.9529 29.1663 54.9529 28.2622 52.9112 26.2205C50.6404 23.9455 47.5279 20.833 41.6362 20.833C35.7445 20.833 32.632 23.9455 30.3612 26.2205C28.3195 28.2622 27.3195 29.1663 24.982 29.1663C22.6445 29.1663 21.6445 28.2622 19.6029 26.2205C17.332 23.9455 14.2195 20.833 8.33203 20.833V29.1663C10.6695 29.1663 11.6695 30.0705 13.7112 32.1122C15.982 34.3872 19.0945 37.4997 24.982 37.4997ZM24.982 58.333C30.8695 58.333 33.982 55.2205 36.2529 52.9455C38.2945 50.9038 39.2987 49.9997 41.6362 49.9997C43.9737 49.9997 44.9779 50.9038 47.0195 52.9455C49.2904 55.2205 52.4029 58.333 58.2945 58.333C64.1904 58.333 67.307 55.2205 69.5862 52.9455C71.632 50.9038 72.6362 49.9997 74.982 49.9997C77.3279 49.9997 78.332 50.9038 80.3779 52.9455C82.6529 55.2205 85.7695 58.333 91.6654 58.333V49.9997C89.3195 49.9997 88.3154 49.0955 86.2695 47.0538C83.9945 44.7788 80.8779 41.6663 74.982 41.6663C69.0862 41.6663 65.9737 44.7788 63.6945 47.0497C61.6487 49.0955 60.6487 49.9997 58.2945 49.9997C55.9529 49.9997 54.9529 49.0955 52.9112 47.0538C50.6404 44.7788 47.5279 41.6663 41.6362 41.6663C35.7445 41.6663 32.632 44.7788 30.3612 47.0538C28.3195 49.0955 27.3195 49.9997 24.982 49.9997C22.6445 49.9997 21.6445 49.0955 19.6029 47.0538C17.332 44.7788 14.2195 41.6663 8.33203 41.6663V49.9997C10.6695 49.9997 11.6695 50.9038 13.7112 52.9455C15.982 55.2205 19.0945 58.333 24.982 58.333ZM24.982 79.1663C30.8695 79.1663 33.982 76.0538 36.2529 73.7788C38.2945 71.7372 39.2987 70.833 41.6362 70.833C43.9737 70.833 44.9779 71.7372 47.0195 73.7788C49.2904 76.0538 52.4029 79.1663 58.2945 79.1663C64.1904 79.1663 67.307 76.0538 69.5862 73.7788C71.632 71.7372 72.6362 70.833 74.982 70.833C77.3279 70.833 78.332 71.7372 80.3779 73.7788C82.6529 76.0538 85.7695 79.1663 91.6654 79.1663V70.833C89.3195 70.833 88.3154 69.9288 86.2695 67.8872C83.9945 65.6122 80.8779 62.4997 74.982 62.4997C69.0862 62.4997 65.9737 65.6122 63.6945 67.883C61.6487 69.9288 60.6487 70.833 58.2945 70.833C55.9529 70.833 54.9529 69.9288 52.9112 67.8872C50.6404 65.6122 47.5279 62.4997 41.6362 62.4997C35.7445 62.4997 32.632 65.6122 30.3612 67.8872C28.3195 69.9288 27.3195 70.833 24.982 70.833C22.6445 70.833 21.6445 69.9288 19.6029 67.8872C17.332 65.6122 14.2195 62.4997 8.33203 62.4997V70.833C10.6695 70.833 11.6695 71.7372 13.7112 73.7788C15.982 76.0538 19.0945 79.1663 24.982 79.1663Z" fill="black"/>
</svg>
