<svg  viewBox="0 0 103 114" fill="none" xmlns="http://www.w3.org/2000/svg">
<path d="M46.9915 47.5996C47.8269 56.0233 47.9749 65.4738 54.0055 71.4173C57.9388 75.2985 63.6474 76.7952 69.1385 77.3696C73.5504 77.8395 78.1452 77.796 82.2439 76.0991C87.9437 73.7408 91.938 68.5195 95.036 63.1851C97.8207 58.3815 100.17 52.8296 99.0129 47.3995C97.5248 40.4204 90.6153 35.4514 89.5275 28.4027C88.666 22.816 91.5203 16.4025 88.2396 11.7991C86.9604 10.0064 84.9502 8.88386 82.9487 7.97013C74.0639 3.93235 63.8128 2.97511 54.3361 5.28118C48.4535 6.71703 45.1854 7.6629 39.2506 6.47941C37.3796 6.10521 30.6206 8.09752 29.0025 9.17627C27.3844 10.7944 26.2445 12.7164 25.7659 14.57C24.4606 19.5128 36.0831 21.6242 38.7112 25.3574C43.3929 31.9972 46.2345 39.8199 47.0089 47.5996H46.9915Z" stroke="#231F20" stroke-width="6.89276" stroke-miterlimit="10"/>
<path d="M30.6205 52.3264C31.6386 51.0037 33.9695 49.3777 34.9354 48.0115C37.8245 43.9215 35.6439 38.9413 32.6417 34.9296C29.6395 30.9179 24.6444 28.7337 19.6581 28.3247C18.2136 28.2116 16.7342 28.229 15.3593 28.6641C13.2882 29.3081 11.5999 30.8222 10.225 32.5017C5.36923 38.4192 3.92467 46.4599 4.00299 54.1178C4.0639 60.3398 5.09075 66.7272 8.27573 72.079C11.4607 77.4308 17.091 81.5991 23.313 81.7993C25.1666 81.8602 27.0549 81.5643 28.7083 80.7289C31.7193 79.2148 33.7033 75.8731 33.5902 72.5054C33.4336 67.8498 29.9875 67.5626 28.1688 64.2993C26.3501 61.036 26.0107 57.8167 28.1688 55.0233L30.6205 52.3264Z" stroke="#231F20" stroke-width="6.89276" stroke-miterlimit="10"/>
<path d="M78.7308 89.789C79.6271 89.6672 80.6017 89.5454 81.3762 90.0066C82.0115 90.3895 82.3683 91.0943 82.6641 91.7731C83.9085 94.6274 84.683 97.8733 83.7432 100.841C82.055 106.166 75.7808 108.412 70.2375 109.116C63.7196 109.943 57.0625 109.665 50.6316 108.29C46.2893 107.359 41.9295 105.871 38.5879 102.938C31.2607 96.4897 33.3927 82.923 44.6011 85.3509C56.4795 87.9181 66.2084 91.4946 78.7308 89.789Z" stroke="#231F20" stroke-width="6.89276" stroke-miterlimit="10"/>
</svg>
