<svg  viewBox="0 0 80 87" fill="none" xmlns="http://www.w3.org/2000/svg">
<path d="M20.3207 72.8852C23.594 71.0215 27.6583 72.1335 29.4672 75.3911C31.5972 79.2204 31.096 84.1382 28.4022 85.8297C25.4186 87.7013 20.8219 85.814 18.504 81.7733C16.5384 78.3434 17.298 74.6159 20.3207 72.8931V72.8852Z" fill="black"/>
<path d="M32.4712 33.9034C36.1987 31.8909 39.613 32.627 41.2809 35.8142C42.9098 38.9309 41.9074 42.7367 39.0335 44.3263C35.5801 46.2371 30.1924 45.1799 28.728 42.306C27.2558 39.4085 28.8298 35.8768 32.4712 33.9034Z" fill="black"/>
<path d="M67.3833 55.0633C65.496 51.4298 66.193 48.2818 69.2783 46.5903C72.3402 44.9066 76.5219 46.0969 78.1743 49.1275C80.0615 52.5809 78.8634 57.1072 75.6292 58.7986C72.5282 60.4118 69.4428 59.0179 67.3911 55.0633H67.3833Z" fill="black"/>
<path d="M9.11594 17.733C5.99141 19.5185 3.74393 18.4535 2.05246 15.556C0.149555 12.2905 0.736883 9.61238 3.72828 7.96006C6.51608 6.41738 10.2201 7.23179 11.614 9.69069C13.1723 12.4393 12.0525 16.0337 9.11594 17.733Z" fill="black"/>
<path d="M62.7349 9.22077C58.7098 11.2646 55.0528 10.2388 54.4106 7.31004C54.0191 5.52459 54.7474 2.78378 56.0238 1.52301C57.8797 -0.30942 63.1499 1.31941 63.6041 3.77831C63.9722 5.75952 62.962 7.99133 62.7349 9.21295V9.22077Z" fill="black"/>
</svg>
