<svg viewBox="0 0 95 95" fill="none" xmlns="http://www.w3.org/2000/svg">
<path d="M94.426 45.0917C85.4818 27.6404 67.7748 15.833 47.4999 15.833C27.225 15.833 9.5131 27.6486 0.573868 45.0933C0.196576 45.8397 0 46.6642 0 47.5005C0 48.3368 0.196576 49.1613 0.573868 49.9077C9.51805 67.359 27.225 79.1663 47.4999 79.1663C67.7748 79.1663 85.4867 67.3507 94.426 49.906C94.8032 49.1597 94.9998 48.3351 94.9998 47.4988C94.9998 46.6626 94.8032 45.838 94.426 45.0917ZM47.4999 71.2497C42.8026 71.2497 38.2108 69.8568 34.3051 67.2471C30.3994 64.6374 27.3554 60.9282 25.5578 56.5884C23.7602 52.2487 23.2899 47.4733 24.2063 42.8663C25.1227 38.2592 27.3846 34.0274 30.7061 30.7059C34.0276 27.3844 38.2595 25.1224 42.8665 24.206C47.4736 23.2896 52.2489 23.76 56.5886 25.5575C60.9284 27.3551 64.6376 30.3992 67.2473 34.3049C69.857 38.2105 71.2499 42.8024 71.2499 47.4997C71.2514 50.619 70.6382 53.708 69.4451 56.5902C68.2521 59.4724 66.5028 62.0912 64.2971 64.2968C62.0914 66.5025 59.4726 68.2519 56.5904 69.4449C53.7083 70.6379 50.6192 71.2512 47.4999 71.2497ZM47.4999 31.6663C46.0867 31.6861 44.6826 31.8963 43.3255 32.2914C44.4441 33.8115 44.9809 35.6822 44.8385 37.5642C44.6962 39.4461 43.8841 41.2147 42.5495 42.5493C41.215 43.8838 39.4464 44.6959 37.5644 44.8383C35.6824 44.9807 33.8118 44.4439 32.2917 43.3253C31.4261 46.5144 31.5823 49.8946 32.7384 52.9902C33.8946 56.0858 35.9923 58.741 38.7365 60.5819C41.4807 62.4228 44.7331 63.3569 48.0359 63.2525C51.3387 63.1482 54.5256 62.0107 57.1481 60.0003C59.7706 57.9898 61.6967 55.2076 62.6551 52.0451C63.6135 48.8827 63.5561 45.4994 62.4909 42.3713C61.4258 39.2432 59.4065 36.5279 56.7173 34.6076C54.0281 32.6872 50.8044 31.6586 47.4999 31.6663Z" fill="black"/>
</svg>
