<svg  viewBox="0 0 117 89" fill="none" xmlns="http://www.w3.org/2000/svg">
<path d="M63.052 63.2103C58.0694 63.6538 54.252 71.3495 50.3215 74.7756C37.904 87.5583 27.7474 74.1669 15.2603 70.9582C11.182 69.9408 6.45152 70.9669 2.46018 70.6104C-4.02684 69.5843 4.04279 63.9234 6.91239 63.419C11.6255 61.9494 16.7212 62.9929 21.1386 65.0103C29.7909 68.8538 37.8344 76.5495 45.7562 68.819C50.965 64.3147 55.0868 55.9668 62.539 55.0363C68.5999 54.4015 75.1826 62.219 79.7565 68.4103C82.9305 72.4017 86.2 77.7322 91.3653 78.9235C99.2262 80.2278 104.409 70.4799 110.218 66.4886C112.087 65.0277 117.453 61.8016 116.844 66.1582C115.635 70.8886 109.461 77.08 105.131 81.4713C83.487 103.558 74.826 63.819 63.1564 63.2016H63.052V63.2103Z" fill="black"/>
<path d="M17.2375 21.7686C18.1798 22.3769 19.0983 22.7705 19.7662 23.4266C24.6807 28.2695 29.619 33.1004 34.3665 38.1103C35.2134 39.0168 35.1656 40.7703 35.5354 42.1301C34.0086 41.9035 31.9808 42.2136 31.0385 41.3428C25.9809 36.6431 21.1499 31.7167 16.3905 26.7188C15.6033 25.8957 15.4363 24.3331 15.3289 23.0926C15.2931 22.7347 16.474 22.2695 17.2375 21.7686Z" fill="black"/>
<path d="M62.2553 13.3954C62.2553 9.81696 62.0883 6.23849 62.3746 2.68386C62.4462 1.7296 63.9253 0.882692 64.7483 0C65.464 0.834979 66.7881 1.65802 66.8 2.50493C66.967 10.0436 66.9909 17.5942 66.8 25.1329C66.7761 26.0633 65.1897 26.946 64.3308 27.8525C63.6271 26.8028 62.3746 25.8008 62.303 24.7034C62.0525 20.946 62.2076 17.1648 62.2076 13.3954C62.2195 13.3954 62.2434 13.3954 62.2553 13.3954Z" fill="black"/>
<path d="M114.32 24.4774C113.545 25.5271 113.055 26.3979 112.376 27.0778C107.628 31.8849 102.916 36.7397 97.99 41.3679C97.0716 42.2267 95.2823 42.1552 93.8867 42.513C94.1372 40.9981 93.8629 38.9822 94.7336 38.0399C99.326 33.0897 104.157 28.3422 109.048 23.6783C109.918 22.8552 111.409 22.4496 112.65 22.3542C113.127 22.3184 113.712 23.6663 114.308 24.4774H114.32Z" fill="black"/>
</svg>
