<svg  viewBox="0 0 63 105" fill="none" xmlns="http://www.w3.org/2000/svg">
<path d="M8.17375 51.0595C8.61526 55.3221 16.2767 58.5878 19.6876 61.9503C32.4134 72.5734 19.0816 81.2623 15.8872 91.9449C14.8743 95.4339 15.8958 99.4808 15.5409 102.895C14.5194 108.445 8.88364 101.541 8.38154 99.0865C6.9185 95.0545 7.95733 90.6951 9.96576 86.916C13.7922 79.5141 21.4536 72.6329 13.7575 65.8559C9.2732 61.3998 0.962447 57.8737 0.0361439 51.4983C-0.59582 46.3133 7.18685 40.6818 13.3507 36.7689C17.3242 34.0536 22.631 31.2565 23.817 26.8376C25.1156 20.1127 15.411 15.6789 11.4375 10.7096C9.98308 9.11014 6.77132 4.5202 11.1085 5.04094C15.8179 6.07498 21.9817 11.3568 26.3535 15.0615C48.3424 33.5775 8.77976 40.9869 8.16511 50.9702L8.16511 51.0595L8.17375 51.0595Z" fill="black"/>
<path d="M44.7611 0.127366C46.1066 1.28094 45.367 4.20579 45.2244 6.12593C44.7878 9.21452 44.7343 12.4147 45.9729 15.4066C48.5036 22.1122 55.347 28.1108 54.9104 35.0694C53.5471 47.394 24.0703 52.5441 43.0591 62.2043C49.6887 66.1488 58.1628 70.6514 62.0479 76.9477C65.6568 83.6384 58.35 89.1234 51.1323 94.5043C47.8709 96.7817 44.3779 99.4386 40.7869 101.202C37.0444 102.989 35.681 101.709 38.2919 98.0245C39.5037 96.283 41.4641 94.2289 43.6027 92.4279C48.6372 88.1187 58.4747 82.4178 52.0144 76.062C45.2868 69.1704 31.8939 65.3524 29.1138 56.2578C27.9999 50.49 35.3246 45.9799 39.6909 42.1545C46.5611 36.729 47.3363 32.9483 42.6136 25.3273C38.9245 19.2766 35.0394 11.8491 38.3364 5.33704C39.2631 3.38713 42.0967 -0.706203 44.7076 0.105017L44.7522 0.134816L44.7611 0.127366Z" fill="black"/>
</svg>
