<svg viewBox="0 0 124 69" fill="none" xmlns="http://www.w3.org/2000/svg">
<path d="M54.6287 25.7497C59.6114 25.3062 63.4288 17.6105 67.3592 14.1844C79.7767 1.4017 89.9334 14.7931 102.42 18.0018C106.499 19.0192 111.229 17.9932 115.221 18.3497C121.708 19.3758 113.638 25.0367 110.768 25.541C106.055 27.0106 100.96 25.9671 96.5421 23.9497C87.8899 20.1062 79.8463 12.4105 71.9245 20.141C66.7158 24.6454 62.594 32.9933 55.1417 33.9237C49.0808 34.5585 42.4981 26.7411 37.9242 20.5497C34.7502 16.5584 31.4807 11.2279 26.3154 10.0365C18.4545 8.73218 13.2718 18.4801 7.46305 22.4715C5.59347 23.9323 0.228213 27.1585 0.836914 22.8019C2.04562 18.0714 8.21959 11.88 12.5501 7.4887C34.1937 -14.5985 42.8547 25.141 54.5244 25.7584H54.6287V25.7497Z" fill="black"/>
<path d="M4.23083 53.5234C5.57867 52.2104 8.99611 52.9321 11.2396 53.0712C14.8483 53.4973 18.5875 53.5495 22.0832 52.3408C29.918 49.8712 36.9268 43.1929 45.0573 43.619C59.4574 44.9494 65.4748 73.7149 76.7619 55.1843C81.3706 48.7147 86.6316 40.445 93.9881 36.6537C101.806 33.1319 108.214 40.2624 114.501 47.306C117.162 50.4886 120.267 53.8973 122.328 57.4017C124.415 61.0539 122.919 62.3844 118.614 59.8365C116.58 58.6539 114.18 56.7408 112.075 54.6539C107.04 49.7408 100.38 40.1407 92.9534 46.4451C84.9011 53.0104 80.4402 66.08 69.814 68.7931C63.0748 69.8801 57.8052 62.7322 53.3356 58.4713C46.9964 51.7669 42.579 51.0103 33.6746 55.6191C26.605 59.2191 17.9266 63.0104 10.3178 59.793C8.03956 58.8887 3.25691 56.1234 4.20474 53.5756L4.23953 53.5321L4.23083 53.5234Z" fill="black"/>
<path d="M68.365 48.7674C60.3823 46.9935 65.1389 36.4021 71.9563 40.4369C76.0433 43.237 73.2607 49.3588 68.5389 48.7848L68.365 48.7674Z" fill="black"/>
<path d="M25.3712 26.124C35.3886 26.6719 34.7364 42.2894 24.6233 41.872C15.3537 40.8633 15.9189 26.411 25.2059 26.124H25.3712Z" fill="black"/>
<path d="M78.6113 27.2021C74.6199 26.3151 77.0026 21.0194 80.4026 23.0368C82.4461 24.4368 81.0548 27.4977 78.6982 27.2108H78.6113V27.2021Z" fill="black"/>
</svg>
