<svg viewBox="0 0 162 60" fill="none" xmlns="http://www.w3.org/2000/svg">
<path d="M107.388 34.2611C102.405 34.7046 98.5879 42.4003 94.6574 45.8264C82.2399 58.6091 72.0833 45.2177 59.5963 42.009C55.518 40.9916 50.7875 42.0177 46.7961 41.6611C40.3091 40.635 48.3787 34.9741 51.2483 34.4698C55.9614 33.0002 61.0571 34.0437 65.4746 36.0611C74.1268 39.9046 82.1704 47.6003 90.0922 39.8698C95.3009 35.3654 99.4227 27.0175 106.875 26.0871C112.936 25.4523 119.519 33.2698 124.092 39.4611C127.266 43.4525 130.536 48.7829 135.701 49.9743C143.562 51.2786 148.745 41.5307 154.554 37.5394C156.423 36.0785 161.788 32.8524 161.18 37.2089C159.971 41.9394 153.797 48.1308 149.467 52.5221C127.823 74.6093 119.162 34.8698 107.492 34.2524H107.388V34.2611Z" fill="black"/>
<path d="M119.029 16.078C117.681 17.3911 114.263 16.6693 112.02 16.5302C108.411 16.1041 104.672 16.0519 101.176 17.2606C93.3414 19.7302 86.3326 26.4085 78.2021 25.9825C63.802 24.652 57.7846 -4.11346 46.4975 14.4171C41.8888 20.8868 36.6279 29.1564 29.2713 32.9477C21.4538 36.4695 15.045 29.339 8.75802 22.2955C6.09713 19.1128 2.99276 15.7041 0.931868 12.1997C-1.15511 8.54751 0.340575 7.21707 4.64496 9.76492C6.67976 10.9475 9.07975 12.8606 11.1841 14.9476C16.2189 19.8607 22.8799 29.4607 30.3061 23.1563C38.3583 16.5911 42.8192 3.52137 53.4454 0.808304C60.1846 -0.278662 65.4542 6.86925 69.9238 11.1302C76.263 17.8346 80.6804 18.5911 89.5848 13.9824C96.6545 10.3823 105.333 6.59097 112.942 9.80839C115.22 10.7127 120.003 13.478 119.055 16.0258L119.02 16.0693L119.029 16.078Z" fill="black"/>
</svg>
