<svg width="73" height="37" viewBox="0 0 73 37" fill="none" xmlns="http://www.w3.org/2000/svg">
<path d="M55.3326 35.7598C52.4668 35.1004 50.6134 34.6747 48.7756 33.2003C46.8598 31.6687 45.9305 29.7738 44.8818 27.6452C43.1842 24.198 43.5943 23.0246 41.9641 21.5762C40.1159 19.9304 37.7796 19.8318 37.1878 19.8162C36.8192 19.8058 34.3376 19.7747 32.0896 21.4775C30.2414 22.8741 30.0077 24.3381 28.6891 26.773C27.9986 28.0502 25.6312 32.4267 21.67 34.7785C19.5829 36.0141 17.1636 36.2633 12.3198 36.7514C12.3198 36.7514 7.95361 37.1926 2.38816 36.4399C2.10781 36.4035 1.89495 36.3568 1.78074 36.3205C1.1837 36.1232 0.591848 35.7338 0 35.4898C0.830664 35.1108 1.65094 34.4463 2.49718 34.4047C5.51872 34.2698 8.54546 34.3736 11.5722 34.3424C17.6983 34.2905 22.0697 31.5493 24.733 25.9579C28.7877 17.4436 37.9562 14.7751 44.3159 20.3457C46.0136 21.8306 47.3946 23.8865 48.3706 25.9423C49.6737 28.6887 51.387 30.7342 53.5104 32.1204C55.7324 33.5689 57.7935 33.8752 61.5315 34.3424C63.7846 34.6228 66.9879 34.8201 70.866 34.3944C72.1017 34.4722 72.9842 34.9291 72.9998 35.3237C73.0206 35.8428 71.3541 36.2841 70.7882 36.4295C67.9535 37.1771 65.6588 36.9019 62.3673 36.5541C56.2515 35.8999 56.4488 36.0141 55.3326 35.7546V35.7598Z" fill="black"/>
<path d="M15.9277 9.47461C16.3378 9.73938 16.7376 9.91071 17.0283 10.1962C19.1673 12.3041 21.3166 14.4067 23.3829 16.5872C23.7515 16.9817 23.7307 17.7449 23.8917 18.3368C23.2272 18.2381 22.3446 18.3731 21.9344 17.9941C19.7332 15.9486 17.6306 13.8044 15.5591 11.6291C15.2164 11.2709 15.1438 10.5908 15.097 10.0509C15.0815 9.89513 15.5954 9.69266 15.9277 9.47461Z" fill="black"/>
<path d="M35.5209 5.83022C35.5209 4.27273 35.4482 2.71523 35.5728 1.16812C35.604 0.752789 36.2477 0.384182 36.606 0C36.9175 0.363416 37.4937 0.721635 37.4989 1.09024C37.5716 4.37137 37.582 7.65768 37.4989 10.9388C37.4886 11.3438 36.7981 11.7279 36.4243 12.1225C36.118 11.6656 35.5728 11.2295 35.5417 10.7519C35.4327 9.11654 35.5001 7.47078 35.5001 5.83022C35.5053 5.83022 35.5157 5.83022 35.5209 5.83022Z" fill="black"/>
<path d="M58.1833 10.6529C57.8459 11.1098 57.633 11.4888 57.3371 11.7847C55.2708 13.877 53.2201 15.99 51.076 18.0043C50.6762 18.3781 49.8975 18.347 49.29 18.5027C49.3991 17.8434 49.2797 16.966 49.6586 16.5558C51.6574 14.4013 53.7601 12.335 55.8886 10.3051C56.2676 9.94687 56.9166 9.77035 57.4565 9.72882C57.6642 9.71324 57.9186 10.2999 58.1782 10.6529H58.1833Z" fill="black"/>
</svg>
