<svg width="99" height="40" viewBox="0 0 99 40" fill="none" xmlns="http://www.w3.org/2000/svg">
<path d="M31 23.2071C31 32.5799 24.4133 40 15.502 40C7.17178 40 0.197666 32.9704 0.00394036 23.9882C-0.189785 14.6154 6.78433 7 15.502 7C24.0259 7 31 14.2249 31 23.2071Z" fill="black"/>
<path d="M50.3468 10.5059C50.3468 16.1252 45.982 20.6451 40.6473 20.7673C35.1914 20.7673 30.5842 16.003 30.7055 10.3837C30.8267 4.52009 35.5552 -0.244111 40.8898 0.00020695C46.1033 0.244525 50.3468 5.00873 50.3468 10.5059Z" fill="#858585"/>
<path d="M98.6413 11.3835C98.6413 16.8807 94.1553 21.6449 88.9419 21.6449C83.6072 21.6449 79 16.8807 79 11.2614C79 5.7642 83.486 1 88.5782 1C93.9128 1 98.6413 5.7642 98.6413 11.3835Z" fill="#858585"/>
<path d="M48 31.5C48 35.5588 44.9375 38.9118 41.175 39C37.15 39 34 35.7353 34 31.5C34 27.2647 37.2375 24 41.175 24C44.9375 24 48 27.4412 48 31.5Z" fill="#C9C7C7"/>
<path d="M78 22.0828C78 29.5385 71.8333 36 64.6667 36C57.3333 36 51 29.5385 51 21.9172C51 14.4615 57.1667 8 64.1667 8C71.5 8 78 14.4615 78 22.0828Z" fill="#323232"/>
</svg>
