<svg width="102" height="73" viewBox="0 0 102 73" fill="none" xmlns="http://www.w3.org/2000/svg">
<path d="M102 53.9421C86.3336 59.1949 84.182 44.3794 75.6428 55.087C68.919 64.1109 58.4299 53.5381 49.9579 55.5584C43.9737 57.3766 37.5861 60.205 31.2657 59.0602C29.1814 58.7235 27.1642 58.2521 25.0126 58.4541C22.6593 58.6561 20.3732 59.7336 18.1543 60.3397C13.5821 61.8213 9.14444 59.599 4.77397 57.7807C3.7654 57.3766 1.2776 56.3665 0.941406 55.9624C1.21036 55.6931 3.69816 56.5685 4.50502 56.7705C9.00996 58.1847 13.5149 59.9357 17.9526 58.0501C20.2387 57.2419 22.4576 56.0298 24.8109 55.6931C27.7694 55.2216 30.7278 56.1645 33.7535 56.2318C35.5017 56.2318 37.3172 56.0298 39.0653 55.6257C43.772 54.7502 48.1425 51.6525 52.8491 51.7871C58.2954 52.0565 63.3382 55.7604 68.8518 55.491C72.0792 55.289 74.3653 52.4606 76.5169 50.2383C83.1734 43.5713 87.8129 55.2216 98.302 53.9421C99.445 53.9421 101.462 53.6728 102.067 53.9421H102Z" fill="black"/>
<path d="M100.655 44.1772C96.2175 43.7058 90.973 40.5407 86.4008 41.3488C83.0389 41.8202 80.0132 43.9752 76.6513 44.4466C74.298 44.8506 71.9446 44.2445 69.5913 43.9752C66.0949 43.5038 62.5313 44.3792 59.0349 45.4567C55.5386 46.5342 52.1767 48.6218 48.5458 48.3525C42.091 48.0157 35.0982 41.8202 28.9796 46.1975C27.1641 47.5443 25.7521 49.632 23.8695 50.9115C20.4403 53.3359 17.1457 50.7095 13.7165 48.7565C11.4305 47.4097 8.94265 46.3995 6.25313 46.1975C4.43771 45.9281 1.54647 46.4669 0 46.0628C0.605142 45.6587 2.4878 45.4567 3.63085 45.2547C13.851 43.0324 18.2215 53.4032 24.6091 46.6689C26.6935 44.3792 28.7779 41.5508 32.0725 41.2814C37.9222 40.9447 43.503 44.7159 49.3527 44.7833C52.4456 44.7833 55.6058 43.0997 58.6987 42.2916C62.3968 41.2814 66.3639 40.406 70.062 41.0121C72.2808 41.3488 74.4997 41.9549 76.7858 41.6855C80.0804 41.4161 83.1734 39.4632 86.5353 39.3958C89.6954 39.1938 92.8556 40.7427 96.0158 42.0222C97.2933 42.561 100.185 43.5711 100.79 44.3119L100.655 44.1772Z" fill="black"/>
<path d="M92.5868 66.1315C91.6454 66.1315 89.3594 64.8519 88.2163 64.3805C84.0476 62.0909 80.215 62.4949 76.0462 64.1112C73.2895 64.9866 70.4655 64.6499 67.6415 64.5826C60.1108 64.4479 53.1853 70.7108 45.5874 68.0844C41.3514 67.1416 36.4431 64.1112 32.6777 67.613C31.1313 68.8925 29.9882 70.9802 28.3745 72.1923C24.004 75.3575 19.9025 68.4885 15.2631 67.613C13.3804 67.0069 11.0944 67.0743 9.21169 67.0743C8.53931 67.0743 8.20312 67.0743 8.20312 66.9396C8.74103 66.5355 10.2203 66.3335 11.1616 66.1315C19.0957 64.2458 22.7938 72.327 27.6349 68.6905C29.3158 67.411 30.3917 65.256 32.0054 63.9091C37.7878 58.791 45.5874 68.3538 56.5472 63.7744C59.1695 62.9663 61.9263 61.9562 64.5485 61.4848C67.776 60.8787 71.0034 62.0235 74.2308 61.7541C76.9203 61.5521 79.4754 60.2726 82.1649 60.542C85.3251 60.744 88.4853 63.101 91.3092 64.9193C92.2506 65.5254 92.7212 65.9968 92.654 66.0641L92.5868 66.1315Z" fill="black"/>
<path d="M50.2939 26.3314C41.2168 26.3314 37.8549 13.9402 45.5872 9.22621C50.3611 6.19577 57.4211 8.55278 59.1693 14.0076C61.3209 19.7317 56.7487 26.3987 50.5628 26.3314H50.2939Z" fill="black"/>
<path d="M65.4896 18.7888C64.481 18.3847 62.9346 16.7685 64.4811 15.9604C65.4896 15.5563 66.9016 16.1624 67.5068 16.9032C67.7085 17.1726 67.5068 17.4419 67.1033 17.7787C66.6999 18.048 66.2292 18.6541 65.7586 18.7888H65.5569H65.4896Z" fill="black"/>
<path d="M35.0984 18.7891C34.6278 18.6544 33.9554 17.981 33.5519 17.6442C32.9468 16.9035 33.5519 15.8933 34.4933 15.8933C37.519 15.4893 37.5862 17.5096 35.3001 18.7891H35.0984Z" fill="black"/>
<path d="M41.3515 27.0719C41.3515 28.082 40.2085 29.4289 39.1999 29.6309C38.3258 29.7656 37.5862 28.6208 38.4603 27.9473C39.1999 27.2739 40.3429 25.523 41.2843 26.8699V27.0719H41.3515Z" fill="black"/>
<path d="M61.6572 30.1697C61.1193 29.9003 60.5141 28.5535 60.1107 28.0147C59.5728 27.274 59.5728 26.5332 60.5813 26.2638C61.6572 26.0618 62.8674 27.5433 62.9347 28.4861C62.9347 29.0249 62.3295 29.9003 61.8589 30.1697H61.6572Z" fill="black"/>
<path d="M40.0737 8.55296C39.4686 8.1489 38.46 6.39798 38.1238 5.65721C38.0566 4.57972 39.0651 4.31034 39.7375 5.1858C40.2082 5.72455 41.4185 6.46532 41.284 7.13876C41.015 7.54281 40.6116 8.28359 40.2754 8.48562H40.0737V8.55296Z" fill="black"/>
<path d="M60.5141 8.55303C60.1107 8.21631 59.5728 7.27351 59.64 6.73476C59.64 5.8593 60.6486 4.78181 61.5227 4.57978C62.1278 4.44509 62.733 4.9165 62.8002 5.52259C62.6657 6.19602 62.0606 6.80211 61.6572 7.40819C61.321 7.81225 60.9848 8.48569 60.7158 8.48569H60.5141V8.55303Z" fill="black"/>
<path d="M51.975 1.95289C51.6388 2.96304 50.2268 4.51194 49.42 3.16507C49.151 2.4243 49.151 1.07743 49.42 0.336659C50.2941 -0.673489 51.6388 0.808061 51.9078 1.68352V1.88555L51.975 1.95289Z" fill="black"/>
<path d="M51.9752 32.4597C51.3028 34.4126 49.084 35.2881 49.2184 32.4597C49.084 29.8333 51.2356 30.4394 51.9752 32.2576V32.4597Z" fill="black"/>
</svg>
