<svg width="86" height="61" viewBox="0 0 86 61" fill="none" xmlns="http://www.w3.org/2000/svg">
<path d="M21.835 44.3465C7.08669 44.3465 -0.957857 37.375 0.191363 25.3687C0.574436 21.6893 2.29827 18.2036 4.21363 14.9115C6.51208 11.0385 9.7682 7.55282 12.4497 3.87345C16.6635 -1.54877 17.2381 -1.54877 21.6435 3.87345C24.8996 7.94012 27.9642 12.0068 31.7949 16.8481C34.2849 13.9433 36.5833 11.2322 38.6903 8.52107C41.5633 4.64806 44.0533 4.26076 46.9263 8.52107C48.8417 11.2322 51.1401 13.7496 53.6301 17.0417C57.2693 12.3941 60.5254 8.32742 63.7816 4.0671C68.3784 -1.74242 68.9531 -1.74242 73.3584 4.0671C76.2315 7.74647 79.1045 11.2322 81.786 14.9115C86.1914 20.9147 87.149 27.3052 84.0845 34.083C80.8283 41.0544 75.0822 43.7655 67.8038 43.9592C66.2715 43.9592 63.7816 44.9274 63.3985 46.283C59.3762 55.7719 52.4809 61.1941 42.3294 60.8068C31.7949 60.4195 25.2827 54.2227 22.0266 43.9592M42.9041 12.3941C37.9241 18.7846 33.5188 24.2068 29.688 30.0163C24.8996 36.9877 26.4319 46.4766 32.7526 51.8989C38.4987 56.7401 47.3094 56.7401 53.0555 51.8989C59.1847 46.6703 60.9085 37.7623 56.3116 30.5973C52.4809 24.5941 47.884 19.1719 42.9041 12.3941ZM17.0466 7.16552C13.4074 12.0068 9.95974 15.8798 7.27822 20.3338C2.4898 28.6608 8.04437 38.7306 17.0466 38.5369C18.3874 38.5369 20.4943 37.956 21.0689 36.9877C23.3673 32.7274 25.2827 28.0798 27.198 23.4322C27.5811 22.4639 27.198 20.5274 26.4319 19.5592C23.7504 15.6862 20.6858 12.0068 17.0466 7.16552ZM69.1446 7.94012C67.9954 8.71472 67.6123 8.90837 67.2292 9.29568C66.6546 9.87663 66.2715 10.6512 65.6969 11.2322C60.1424 17.0417 55.3539 23.0449 62.8239 30.7909C63.3985 31.3719 63.3985 32.3401 63.59 33.1147C65.3139 38.9242 68.57 40.2798 73.933 37.5687C79.8707 34.4703 82.3606 26.7242 78.5299 20.5274C75.8484 16.2671 72.4007 12.3941 69.1446 8.13377" fill="black"/>
</svg>
