<svg width="45" height="50" viewBox="0 0 45 50" fill="none" xmlns="http://www.w3.org/2000/svg">
<path d="M20.7118 20.9542C21.0754 24.6205 21.1397 28.7337 23.7645 31.3206C25.4764 33.0098 27.961 33.6612 30.351 33.9112C32.2712 34.1157 34.271 34.0968 36.0549 33.3582C38.5358 32.3318 40.2742 30.0593 41.6226 27.7376C42.8346 25.6469 43.8572 23.2305 43.3535 20.867C42.7058 17.8295 39.6985 15.6668 39.2251 12.5989C38.8501 10.1673 40.0924 7.37595 38.6645 5.37236C38.1078 4.59213 37.2329 4.10354 36.3617 3.70586C32.4947 1.94845 28.033 1.53183 23.9084 2.53552C21.3481 3.16046 19.9257 3.57213 17.3426 3.05703C16.5283 2.89417 13.5865 3.7613 12.8822 4.23081C12.1779 4.93508 11.6818 5.77164 11.4735 6.57837C10.9054 8.72968 15.964 9.64866 17.1078 11.2735C19.1455 14.1634 20.3822 17.5681 20.7193 20.9542H20.7118Z" stroke="#231F20" stroke-width="3" stroke-miterlimit="10"/>
<path d="M13.5863 23.0113C14.0294 22.4356 15.0439 21.7279 15.4643 21.1332C16.7218 19.3531 15.7727 17.1855 14.466 15.4395C13.1593 13.6935 10.9853 12.7428 8.81502 12.5648C8.1863 12.5155 7.54242 12.5231 6.944 12.7125C6.04257 12.9928 5.30779 13.6518 4.70937 14.3828C2.59594 16.9583 1.96721 20.4579 2.0013 23.791C2.02781 26.499 2.47474 29.279 3.86097 31.6084C5.24719 33.9377 7.69771 35.7519 10.4058 35.839C11.2125 35.8655 12.0344 35.7367 12.754 35.3731C14.0645 34.7141 14.9281 33.2597 14.8788 31.794C14.8106 29.7676 13.3108 29.6426 12.5192 28.2223C11.7276 26.802 11.5799 25.4008 12.5192 24.1851L13.5863 23.0113Z" stroke="#231F20" stroke-width="3" stroke-miterlimit="10"/>
<path d="M34.5247 39.3165C34.9148 39.2635 35.339 39.2105 35.6761 39.4112C35.9526 39.5778 36.1079 39.8846 36.2367 40.1801C36.7783 41.4224 37.1154 42.8351 36.7063 44.1266C35.9715 46.4446 33.2407 47.4218 30.8281 47.7286C27.9913 48.0884 25.0938 47.9672 22.2949 47.3687C20.4049 46.9635 18.5073 46.3158 17.0529 45.0394C13.8639 42.2329 14.7918 36.3282 19.6701 37.3849C24.8401 38.5022 29.0745 40.0589 34.5247 39.3165Z" stroke="#231F20" stroke-width="3" stroke-miterlimit="10"/>
</svg>
