<svg width="34" height="38" viewBox="0 0 34 38" fill="none" xmlns="http://www.w3.org/2000/svg">
<path d="M8.42795 31.4017C9.85262 30.5905 11.6215 31.0745 12.4089 32.4924C13.3359 34.159 13.1178 36.2995 11.9453 37.0357C10.6468 37.8502 8.64608 37.0288 7.63722 35.2702C6.78173 33.7773 7.11234 32.155 8.42795 31.4051V31.4017Z" fill="black"/>
<path d="M13.7145 14.4358C15.3369 13.5599 16.8229 13.8803 17.5489 15.2674C18.2578 16.6239 17.8215 18.2804 16.5707 18.9723C15.0676 19.8039 12.7227 19.3438 12.0853 18.0929C11.4446 16.8319 12.1296 15.2947 13.7145 14.4358Z" fill="black"/>
<path d="M28.9122 23.6451C28.0907 22.0637 28.3941 20.6935 29.737 19.9573C31.0696 19.2245 32.8897 19.7426 33.6088 21.0616C34.4302 22.5647 33.9087 24.5347 32.5011 25.2709C31.1514 25.973 29.8085 25.3663 28.9156 23.6451H28.9122Z" fill="black"/>
<path d="M3.55108 7.39668C2.19116 8.17377 1.21297 7.71024 0.476774 6.44917C-0.351445 5.0279 -0.0958171 3.86226 1.20616 3.14311C2.41952 2.47167 4.03165 2.82614 4.63833 3.89635C5.31658 5.09266 4.82919 6.65707 3.55108 7.39668Z" fill="black"/>
<path d="M26.8874 3.69234C25.1355 4.58191 23.5439 4.13542 23.2644 2.86071C23.094 2.08362 23.4109 0.890707 23.9665 0.341969C24.7743 -0.455575 27.068 0.253355 27.2657 1.32356C27.4259 2.18587 26.9863 3.15724 26.8874 3.68893V3.69234Z" fill="black"/>
</svg>
