<svg width="72" height="48" viewBox="0 0 72 48" fill="none" xmlns="http://www.w3.org/2000/svg">
<g clip-path="url(#clip0_1_1917)">
<path d="M35.5788 47.9999C20.6085 47.5452 5.63816 39.2313 0 24.4221C4.86049 7.85918 22.0342 -1.36409 39.9208 0.194771C53.7246 1.29897 66.5563 9.67785 72 23.5128C68.1764 38.1921 51.0027 47.7401 36.4212 47.9999H35.5788ZM34.2178 42.0243C46.2718 42.0243 61.5662 35.6589 65.3897 23.4478C60.7885 12.8605 48.1512 5.97556 36.7453 5.9106C25.2745 5.71575 10.6931 11.8213 6.54545 24.4221C11.3411 34.165 22.6823 41.6995 33.4401 42.0243H34.2178Z" fill="black"/>
<path d="M22.6821 20.3951C29.746 22.6035 34.6065 17.0176 32.4031 10.5872C37.3932 8.4438 44.0035 10.847 47.5678 16.0433C51.3266 21.5642 50.6137 28.9039 45.7532 33.9052C41.2816 38.5169 33.8936 39.1664 28.3203 35.594C23.071 32.2165 20.6731 25.6563 22.6821 20.3951Z" fill="black"/>
</g>
<defs>
<clipPath id="clip0_1_1917">
<rect width="72" height="48" fill="white"/>
</clipPath>
</defs>
</svg>
