<svg width="50" height="50" viewBox="0 0 50 50" fill="none" xmlns="http://www.w3.org/2000/svg">
<path d="M24.4432 11.4398C31.7251 11.3868 37.6481 17.2607 37.6595 24.5387C37.6709 31.8092 31.7591 37.6831 24.466 37.6528C17.3582 37.6225 11.5449 31.866 11.4427 24.7545C11.3405 17.4727 17.1804 11.4928 24.4432 11.4398ZM14.5008 24.5841C14.5576 25.0156 14.5992 26.0488 14.8528 27.0329C15.7195 30.4126 16.3326 30.564 18.8456 28.0737C22.0362 24.9096 25.0904 21.598 28.4172 18.5891C30.8886 16.3524 29.6359 15.6295 27.3916 14.9104C21.4268 13.0029 14.8338 17.6468 14.5046 24.5841H14.5008Z" fill="black"/>
<path d="M11.4688 9.81243C11.3856 10.8646 10.886 11.5761 10.0609 11.4285C8.31616 11.1182 7.21102 9.89191 6.82498 8.20392C6.63196 7.35614 7.31321 6.67111 8.1572 6.80357C9.93602 7.07986 10.8406 8.42343 11.4688 9.81621V9.81243Z" fill="black"/>
<path d="M39.2223 11.4741C38.1739 11.3454 37.4813 10.8231 37.6667 9.99801C38.049 8.29488 39.2223 7.13676 40.9519 6.81506C41.811 6.6561 42.4582 7.37898 42.2955 8.21162C41.9511 9.9526 40.6605 10.9026 39.226 11.4703L39.2223 11.4741Z" fill="black"/>
<path d="M9.62209 37.6571C10.6856 37.5776 11.4577 38.0507 11.4274 38.8379C11.3593 40.7038 9.96272 41.6765 8.39206 42.2593C7.57456 42.5621 6.7722 41.9755 6.7949 41.1353C6.84032 39.2429 8.37313 38.4557 9.62209 37.6571Z" fill="black"/>
<path d="M42.3408 40.8099C42.2348 41.8999 41.6557 42.4979 40.8344 42.2821C39.1692 41.8469 37.9429 40.7455 37.6931 38.9781C37.5796 38.1568 38.3252 37.468 39.1502 37.6648C40.8534 38.0735 41.8412 39.3301 42.3408 40.8099Z" fill="black"/>
<path d="M22.9971 2.60274C23.0955 1.50517 22.7776 -0.114694 24.6926 0.00641746C26.2557 0.101036 26.1005 1.50895 26.0892 2.6368C26.0741 3.8744 26.3163 5.4375 24.4012 5.33152C22.8003 5.24069 23.0273 3.83277 22.9971 2.60652V2.60274Z" fill="black"/>
<path d="M2.76415 26.1063C1.48113 26.042 0.0467222 26.2388 0.00130549 24.653C-0.0516806 22.7833 1.51898 23.018 2.75658 23.0028C3.88822 22.9915 5.27342 22.8401 5.33019 24.441C5.4021 26.3713 3.79359 26.0041 2.76036 26.1063H2.76415Z" fill="black"/>
<path d="M46.3415 26.094C45.2099 26.0789 43.8209 26.253 43.7641 24.652C43.6998 22.7408 45.278 23.0133 46.5043 23.0095C47.6208 23.0095 49.0514 22.8505 49.0968 24.4401C49.1498 26.3135 47.5753 26.0524 46.3415 26.0978V26.094Z" fill="black"/>
<path d="M26.1043 46.441C26.0438 47.5499 26.2746 48.9957 24.7115 49.0903C22.8419 49.2038 23.0084 47.6445 23.0046 46.388C23.0046 45.2677 22.8003 43.8598 24.3898 43.7576C26.2973 43.6365 26.0627 45.1958 26.1043 46.441Z" fill="black"/>
</svg>
