<svg width="103" height="43" viewBox="0 0 103 43" fill="none" xmlns="http://www.w3.org/2000/svg">
<path d="M103 15.8434C89.9694 15.9794 77.3148 18.5644 65.3993 25.8942C61.1076 28.5302 56.803 30.9111 51.9408 30.9962C46.3915 31.0982 41.283 29.1595 36.5375 25.5371C30.0028 20.5712 23.2865 16.1835 15.7793 14.4999C10.995 13.4285 6.1328 12.9013 1.29658 12.153C0.894637 12.0849 0.492699 12.153 0 12.153V7C2.16528 7.15306 4.3176 7.2551 6.45695 7.45918C18.3336 8.54759 29.1341 13.7516 39.364 21.5916C46.4434 27.0337 53.9376 27.4928 61.3669 22.612C73.853 14.3978 87.2336 11.3707 101.029 10.6054C101.677 10.5714 102.339 10.8095 103 10.9285V15.8264V15.8434Z" fill="black"/>
<path d="M103 5.40262C98.0213 6.07562 93.0168 6.54155 88.064 7.49065C79.4387 9.14726 71.0202 12.0636 63.1578 17.1542C54.3643 22.8488 45.8424 22.055 37.4886 15.86C29.7297 10.0964 21.6216 5.78226 12.7635 4.41901C9.02624 3.84955 5.23729 3.72876 1.4742 3.40089C1.07332 3.36637 0.672442 3.33186 0.155179 3.29735C0.103453 2.26197 0.0646579 1.33012 0 0.0186369C1.65524 0.0186369 3.23289 -0.0331322 4.81055 0.0358933C16.5395 0.519072 27.5701 4.34999 37.7861 12.1844C42.2475 15.6011 46.9546 17.7754 52.2306 17.5684C55.5282 17.4303 58.5283 16.1706 61.4508 14.3587C74.0721 6.5588 87.4562 3.19381 101.228 2.15843C101.694 2.12391 102.147 2.15843 102.586 2.15843C102.741 3.02125 102.871 3.79778 103 4.57432V5.40262Z" fill="black"/>
<path d="M0 23.5167V15C2.70062 15.2919 5.25841 15.498 7.80323 15.8585C18.9952 17.4383 29.4082 22.2461 39.2239 29.4407C43.6513 32.6859 48.3255 35.0383 53.48 34.1283C55.8431 33.7162 58.31 32.8405 60.4004 31.381C73.2672 22.3148 87.1209 18.9836 101.494 18.5372C101.961 18.5372 102.416 18.5372 103 18.5372V26.9681C100.157 27.1741 97.3651 27.26 94.5865 27.5862C83.862 28.8397 73.488 31.8274 63.9319 38.7816C56.2845 44.3449 48.4034 44.1389 40.5482 39.726C36.1208 37.2362 31.914 34.0253 27.5125 31.4496C19.151 26.556 10.3091 24.3753 1.23346 23.6884C0.830959 23.6541 0.428463 23.5854 0 23.5167Z" fill="black"/>
</svg>
