<svg width="54" height="30" viewBox="0 0 54 30" fill="none" xmlns="http://www.w3.org/2000/svg">
<path d="M23.4331 10.8537C25.6018 10.6606 27.2633 7.31116 28.974 5.81998C34.3785 0.256442 38.7991 6.08491 44.234 7.48147C46.009 7.92428 48.0679 7.4777 49.8051 7.63287C52.6285 8.07947 49.1162 10.5433 47.8673 10.7628C45.816 11.4024 43.5981 10.9483 41.6755 10.0702C37.9097 8.39737 34.4088 5.0479 30.9609 8.41252C28.6939 10.373 26.8999 14.0063 23.6564 14.4113C21.0185 14.6876 18.1534 11.2851 16.1627 8.5904C14.7812 6.85322 13.3582 4.53317 11.1101 4.01466C7.68868 3.44696 5.43298 7.68964 2.90478 9.42682C2.09107 10.0627 -0.244104 11.4668 0.0208268 9.57065C0.546903 7.51176 3.23406 4.81703 5.11885 2.90574C14.539 -6.70745 18.3086 10.5887 23.3877 10.8574H23.4331V10.8537Z" fill="black"/>
<path d="M1.49689 22.942C2.08352 22.3706 3.57093 22.6847 4.54739 22.7452C6.11805 22.9307 7.74548 22.9534 9.26694 22.4273C12.677 21.3525 15.7275 18.4458 19.2662 18.6313C25.5337 19.2103 28.1527 31.7302 33.0653 23.6649C35.0712 20.8491 37.3609 17.2498 40.5628 15.5997C43.9653 14.0669 46.7546 17.1703 49.491 20.236C50.6491 21.6212 52.0002 23.1048 52.8972 24.63C53.8055 26.2196 53.1546 26.7987 51.2811 25.6898C50.3955 25.175 49.3509 24.3424 48.435 23.4341C46.2437 21.2957 43.3446 17.1174 40.1124 19.8613C36.6078 22.7188 34.6662 28.4072 30.0413 29.588C27.1081 30.0611 24.8146 26.9501 22.8692 25.0956C20.1102 22.1775 18.1875 21.8483 14.312 23.8542C11.235 25.421 7.45783 27.0712 4.1462 25.6708C3.1546 25.2772 1.073 24.0737 1.48554 22.9648L1.50068 22.9458L1.49689 22.942Z" fill="black"/>
<path d="M29.413 20.8722C25.9386 20.1001 28.0088 15.4904 30.976 17.2465C32.7549 18.4652 31.5438 21.1296 29.4887 20.8798L29.413 20.8722Z" fill="black"/>
<path d="M10.6976 11.0166C15.0576 11.255 14.7737 18.0524 10.3721 17.8707C6.3376 17.4317 6.58361 11.1415 10.6257 11.0166H10.6976Z" fill="black"/>
<path d="M33.8714 11.4854C32.1342 11.0994 33.1712 8.7945 34.651 9.67255C35.5404 10.2819 34.9349 11.6141 33.9092 11.4892H33.8714V11.4854Z" fill="black"/>
</svg>
