<svg width="71" height="26" viewBox="0 0 71 26" fill="none" xmlns="http://www.w3.org/2000/svg">
<path d="M46.7381 14.6086C44.5695 14.8016 42.908 18.1511 41.1973 19.6423C35.7927 25.2058 31.3722 19.3773 25.9373 17.9808C24.1623 17.538 22.1034 17.9846 20.3662 17.8294C17.5428 17.3828 21.055 14.919 22.304 14.6994C24.3553 14.0598 26.5731 14.514 28.4958 15.392C32.2616 17.0649 35.7624 20.4144 39.2103 17.0497C41.4774 15.0893 43.2713 11.4559 46.5148 11.051C49.1528 10.7747 52.0178 14.1771 54.0086 16.8719C55.39 18.6091 56.813 20.9291 59.0612 21.4476C62.4826 22.0153 64.7383 17.7726 67.2665 16.0354C68.0802 15.3996 70.4154 13.9955 70.1504 15.8916C69.6243 17.9505 66.9372 20.6452 65.0524 22.5565C55.6322 32.1697 51.8626 14.8735 46.7835 14.6048H46.7381V14.6086Z" fill="black"/>
<path d="M51.8059 6.69431C51.2193 7.2658 49.7319 6.95167 48.7554 6.89111C47.1847 6.70566 45.5573 6.68295 44.0359 7.20903C40.6258 8.28389 37.5753 11.1906 34.0366 11.0051C27.7691 10.426 25.1501 -2.09382 20.2375 5.97143C18.2316 8.78726 15.9419 12.3865 12.74 14.0367C9.33754 15.5695 6.54819 12.466 3.81184 9.40039C2.65371 8.01518 1.30256 6.53156 0.405585 5.00632C-0.502748 3.41673 0.148232 2.83768 2.02167 3.9466C2.90729 4.46132 3.95186 5.29396 4.86776 6.20229C7.05912 8.34066 9.95824 12.519 13.1904 9.77507C16.695 6.9176 18.6366 1.22916 23.2615 0.0483281C26.1947 -0.424762 28.4882 2.68629 30.4336 4.5408C33.1926 7.45882 35.1153 7.78809 38.9908 5.78219C42.0678 4.21532 45.845 2.56517 49.1566 3.96552C50.1482 4.35913 52.2298 5.56267 51.8173 6.67159L51.8021 6.69052L51.8059 6.69431Z" fill="black"/>
</svg>
