<svg width="56" height="50" viewBox="0 0 56 50" fill="none" xmlns="http://www.w3.org/2000/svg">
<path d="M55.5286 8.19712C54.695 10.3079 53.0895 9.93518 50.0714 10C37.342 10 18.1659 10 6.20854 10C3.71194 9.97974 2.05713 10.1256 1.15786 9.24644C-0.406616 7.5894 -0.287534 2.78035 0.927912 1.04228C1.59312 0.146918 2.75108 0.0375328 4.53319 0.0334813C15.2464 0.122613 43.3618 -0.156941 53.381 0.142866C56.5675 0.3819 56.2307 6.06202 55.5368 8.16066L55.5245 8.19712H55.5286Z" fill="#7D69F0"/>
<path d="M32.3223 22.1755C31.0668 24.3788 29.1037 23.8803 25.7707 23.996C22.1717 23.996 18.2539 23.996 14.1765 23.996C11.1378 23.996 8.17692 24.0094 5.37142 23.9871C3.32659 23.9871 1.05274 23.8402 0.410659 21.4499C-0.182342 19.2777 -0.268224 16.1975 1.07318 14.2924C1.97291 13.2063 3.34704 13.1395 4.67618 13.0728C12.0744 13.144 22.6339 12.7745 29.9953 13.2374C31.4185 13.4867 32.2691 14.328 32.6699 15.8414C33.1648 17.7065 33.1402 20.4351 32.3427 22.1354L32.3223 22.1755Z" fill="#7D69F0"/>
<path d="M55.3823 35.1371C54.2371 37.3799 52.3571 36.8894 49.1309 36.9965C48.3756 36.9965 47.6286 36.9965 46.8487 36.9965C39.9651 36.9965 31.1154 36.9965 24.0267 36.9965C21.6377 37.0054 18.8383 37.1525 18.2883 34.116C17.8368 32.0024 17.845 29.3137 18.826 27.5256C19.688 26.0898 21.3463 26.0898 22.8322 26.0363C31.2016 26.0809 44.8948 25.8802 52.6034 26.121C53.9662 26.2593 54.98 26.7854 55.489 28.1855C56.1827 30.0984 56.1868 33.2242 55.3987 35.0925L55.3782 35.1326L55.3823 35.1371Z" fill="#7D69F0"/>
<path d="M55.5286 48.1971C54.695 50.3079 53.0895 49.9352 50.0714 50C37.342 50 18.1659 50 6.20854 50C3.71194 49.9797 2.05713 50.1256 1.15786 49.2464C-0.406616 47.5894 -0.287534 42.7803 0.927912 41.0423C1.59312 40.1469 2.75108 40.0375 4.53319 40.0335C15.2464 40.1226 43.3618 39.8431 53.381 40.1429C56.5675 40.3819 56.2307 46.062 55.5368 48.1607L55.5245 48.1971H55.5286Z" fill="#7D69F0"/>
</svg>
